<svg xmlns="http://www.w3.org/2000/svg" viewBox="0 0 96 96" role="img" aria-label="TrafficerTR Earth">
  <defs>
    <radialGradient id="ocean" cx="34%" cy="28%" r="72%">
      <stop offset="0%" stop-color="#78e6ff"/>
      <stop offset="48%" stop-color="#219bd8"/>
      <stop offset="100%" stop-color="#0d4e91"/>
    </radialGradient>
    <linearGradient id="land" x1="0" x2="1" y1="0" y2="1">
      <stop offset="0%" stop-color="#a9f06d"/>
      <stop offset="100%" stop-color="#28a45b"/>
    </linearGradient>
    <filter id="softShadow" x="-30%" y="-30%" width="160%" height="160%">
      <feDropShadow dx="0" dy="5" stdDeviation="5" flood-color="#180407" flood-opacity="0.35"/>
    </filter>
  </defs>

  <g filter="url(#softShadow)">
    <ellipse cx="48" cy="50" rx="42" ry="17" fill="none" stroke="#fff3d1" stroke-width="4" opacity="0.75"
      stroke-linecap="round" transform="rotate(-18 48 50)"/>
    <circle cx="48" cy="48" r="33" fill="url(#ocean)" stroke="#fff7e6" stroke-width="4"/>
    <path fill="url(#land)" d="M30 30c7-7 16-7 21-2 3 3 0 8-5 8-4 0-5 4-2 7 3 4 1 8-4 7-6-1-8-7-14-7-5 0-7-7 4-13z"/>
    <path fill="url(#land)" d="M58 34c8 0 16 7 18 15-5 0-8 2-9 6-2 7-11 5-10-2 1-4-5-5-4-10 1-5 3-8 5-9z"/>
    <path fill="url(#land)" d="M37 58c5-3 11 0 12 5 1 4 6 4 7 8-9 3-21-1-26-9 2-1 4-2 7-4z"/>
    <circle cx="37" cy="35" r="5" fill="#ffffff" opacity="0.2"/>
    <path d="M21 47c5 8 19 14 34 12 11-1 20-6 25-13" fill="none" stroke="#ffffff" stroke-width="3"
      opacity="0.18" stroke-linecap="round"/>
    <circle cx="72" cy="22" r="4" fill="#ffd86b"/>
  </g>
</svg>
